<svg version="1.1" id="Uploaded to svgrepo.com" xmlns="http://www.w3.org/2000/svg" xmlns:xlink="http://www.w3.org/1999/xlink" x="0px" y="0px"
	 width="32px" height="32px" viewBox="0 0 32 32" style="enable-background:new 0 0 32 32;" xml:space="preserve">
<style type="text/css">
	.stone_een{fill:#0B1719;}
</style>
<path class="stone_een" d="M17.5,27c-0.827,0-1.5-0.673-1.5-1.5v-20C16,4.673,16.673,4,17.5,4S19,4.673,19,5.5v20
	C19,26.327,18.327,27,17.5,27z M9.5,25C8.673,25,8,24.327,8,23.5v-16C8,6.673,8.673,6,9.5,6S11,6.673,11,7.5v16
	C11,24.327,10.327,25,9.5,25z M21.5,22c-0.827,0-1.5-0.673-1.5-1.5v-10C20,9.673,20.673,9,21.5,9S23,9.673,23,10.5v10
	C23,21.327,22.327,22,21.5,22z M13.5,22c-0.827,0-1.5-0.673-1.5-1.5v-10C12,9.673,12.673,9,13.5,9S15,9.673,15,10.5v10
	C15,21.327,14.327,22,13.5,22z M5.5,21C4.673,21,4,20.327,4,19.5v-8C4,10.673,4.673,10,5.5,10S7,10.673,7,11.5v8
	C7,20.327,6.327,21,5.5,21z M29.5,20c-0.827,0-1.5-0.673-1.5-1.5v-6c0-0.827,0.673-1.5,1.5-1.5s1.5,0.673,1.5,1.5v6
	C31,19.327,30.327,20,29.5,20z M25.5,19c-0.827,0-1.5-0.673-1.5-1.5v-4c0-0.827,0.673-1.5,1.5-1.5s1.5,0.673,1.5,1.5v4
	C27,18.327,26.327,19,25.5,19z M1.5,18C0.673,18,0,17.327,0,16.5v-2C0,13.673,0.673,13,1.5,13S3,13.673,3,14.5v2
	C3,17.327,2.327,18,1.5,18z"/>
</svg>